<svg class="svg-icon" style="width: 1em;height: 1em;vertical-align: middle;fill: currentColor;overflow: hidden;" viewBox="0 0 1024 1024" version="1.1" xmlns="http://www.w3.org/2000/svg"><path d="M419.413333 632.32a1053.525333 1053.525333 0 0 1 185.173334 0l19.626666 1.706667c26.922667 2.645333 53.632 6.826667 79.914667 12.373333 66.986667 13.824 115.669333 38.314667 137.216 83.754667a124.842667 124.842667 0 0 1 0 106.794666c-21.589333 45.568-70.869333 70.229333-136.704 83.2l-19.925333 4.181334c-26.666667 5.12-53.546667 8.576-80.213334 10.410666-50.133333 4.266667-100.437333 5.034667-148.992 2.389334-5.333333 0-8.96 0-12.117333-0.085334l-6.144-0.256a97.28 97.28 0 0 1-17.237333-2.005333 656.213333 656.213333 0 0 1-99.498667-14.464l-10.922667-2.261333c-60.928-13.525333-106.069333-37.973333-126.933333-81.152a125.013333 125.013333 0 0 1 0.256-107.306667c21.76-43.690667 72.832-69.973333 136.704-83.114667a713.429333 713.429333 0 0 1 99.84-14.122666z m179.797334 61.568c-58.026667-5.12-116.394667-5.12-174.976 0.042667-30.848 2.133333-61.525333 6.485333-92.032 13.013333-47.232 9.728-83.328 28.288-94.08 49.877333a62.933333 62.933333 0 0 0 0 53.376c11.008 22.826667 45.098667 39.893333 95.018666 49.706667l15.018667 3.157333c25.173333 4.992 51.157333 8.448 79.957333 10.666667 3.669333 0.682667 7.594667 1.152 12.245334 1.365333l16.810666 0.298667c47.36 2.56 94.848 1.834667 142.634667-2.218667 30.762667-2.133333 61.354667-6.570667 92.245333-13.44l9.557334-2.048c43.861333-9.941333 74.197333-26.197333 84.181333-47.274666a62.805333 62.805333 0 0 0 0-53.76c-10.666667-22.485333-44.458667-39.509333-94.208-49.749334a662.784 662.784 0 0 0-91.861333-12.970666zM512.170667 85.333333c125.184 0 226.688 101.930667 226.688 227.626667 0 125.738667-101.504 227.626667-226.688 227.626667-125.184 0-226.645333-101.888-226.645334-227.626667C285.525333 187.306667 386.986667 85.333333 512.170667 85.333333z m0 61.781334a165.546667 165.546667 0 0 0-165.12 165.845333 165.546667 165.546667 0 0 0 165.12 165.888 165.546667 165.546667 0 0 0 165.162666-165.888 165.546667 165.546667 0 0 0-165.12-165.845333z" fill="#200E32" /></svg>