<svg class="svg-icon" style="width: 1em; height: 1em;vertical-align: middle;fill: currentColor;overflow: hidden;" viewBox="0 0 1024 1024" version="1.1" xmlns="http://www.w3.org/2000/svg"><path d="M496.447281 523.426237c-93.033883 0-168.707376-75.68782-168.707376-168.7084 0-93.007277 75.673493-168.68077 168.707376-168.68077 93.021603 0 168.7084 75.673493 168.7084 168.68077C665.15568 447.738417 589.468884 523.426237 496.447281 523.426237zM496.447281 214.077703c-77.562517 0-140.66674 63.09092-140.66674 140.641157 0 77.562517 63.104223 140.667763 140.66674 140.667763 77.562517 0 140.667763-63.104223 140.667763-140.667763C637.115044 277.168624 574.009797 214.077703 496.447281 214.077703z"  /><path d="M407.150512 351.376743c-7.749498 0-14.020318-6.27082-14.020318-14.019295 0-9.474792 1.286296-15.047718 3.422959-23.084765 1.985214-7.489578 9.597589-11.966543 17.141402-9.967002 7.489578 1.985214 11.938913 9.66615 9.967002 17.141402-1.738597 6.517437-2.491751 9.66615-2.491751 15.910365C421.17083 345.105922 414.886707 351.376743 407.150512 351.376743z"  /><path d="M496.447281 458.062554c-44.63457 0-84.052325-28.450982-98.086969-70.78516-2.437515-7.338129 1.547239-15.280008 8.886391-17.7165 7.380084-2.39556 15.293311 1.547239 17.730826 8.899694 10.226922 30.833239 38.95215 51.562353 71.469752 51.562353 7.735172 0 14.020318 6.27082 14.020318 14.021342C510.467599 451.791733 504.182452 458.062554 496.447281 458.062554z"  /><path d="M568.068482 684.795485c-12.267395 0-24.329105-3.574409-34.899858-10.350742l-18.661012-11.966543c-8.475022-5.421476-27.643594-5.421476-36.117592 0l-18.634406 11.966543c-10.597359 6.776334-22.660092 10.350742-34.914184 10.350742-23.714098 0.013303-45.346791-13.335726-56.450686-34.817993l-10.171664-19.716041c-4.806469-9.255805-19.635199-18.059308-30.505781-18.059308l-22.906709 1.068332c-19.126616 0.807389-36.679387-6.148024-49.440016-19.510356-12.089339-12.651135-18.278295-29.478382-17.443277-47.387263l1.013073-22.098297c0.506537-10.843976-8.43409-26.341948-18.059308-31.31317l-19.689435-10.18599c-16.141632-8.337899-28.067242-22.975271-32.667004-40.143279-4.614088-17.183358-1.630127-35.831067 8.187473-51.16531l12.006452-18.689664c5.819542-9.091052 5.819542-26.999934-0.026606-36.131919l-11.95324-18.6078c-9.844206-15.361873-12.82919-34.009582-8.228405-51.179636 4.600785-17.183358 16.512069-31.833009 32.668027-40.198537l19.729344-10.172687c9.597589-4.956895 18.538215-20.454868 18.032702-31.271214l-1.013073-22.152533c-0.835018-17.86795 5.352915-34.7085 17.443277-47.359634 12.760628-13.363356 30.436196-19.812231 49.426713-19.113313l22.13923 1.437745c0.013303 0 0.027629 0 0.027629 0 11.651364 0 26.465768-9.172917 31.271214-18.469654l10.146081-19.838837c11.117199-21.523199 32.749892-34.968419 56.450686-34.968419 12.267395 0 24.343431 3.545756 34.927487 10.323113l18.647709 11.938913c8.447393 5.421476 27.629267 5.408173 36.104289-0.013303l18.675338-11.980869c10.543124-6.763031 22.604834-10.364045 34.886555-10.364045 23.699772 0 45.319162 13.349029 56.43636 34.831296l10.187013 19.688411c4.805446 9.296737 19.605523 18.086937 30.477129 18.086937l22.918989-1.068332c19.250436-0.697895 36.679387 6.147 49.440016 19.510356 12.076036 12.651135 18.277272 29.491685 17.443277 47.38624l-1.013073 22.098297c-0.506537 10.843976 8.43409 26.341948 18.044982 31.31317l19.676132 10.145058c16.196891 8.378831 28.094872 23.029506 32.695656 40.21184 4.614088 17.169031 1.614777 35.81674-8.187473 51.138704l-11.994172 18.675338c-5.832845 9.104355-5.832845 27.013237 0.014326 36.131919l11.952216 18.634406c9.844206 15.361873 12.82919 34.009582 8.215102 51.192939-4.614088 17.169031-16.525372 31.80538-32.695656 40.157605l-19.660782 10.171664c-9.625218 4.970198-18.566868 20.469194-18.059308 31.28554l1.013073 22.153556c0.833995 17.86795-5.367241 34.694173-17.443277 47.358611-12.048407 12.623505-28.492938 19.579941-46.278 19.579941-0.014326 0-0.014326 0-0.014326 0-1.040702 0-2.094708 2.245134-3.148713 2.203178l-22.125927 1.232061c-0.013303 0-0.026606 0-0.039909 0-11.652388 0-26.439162 6.490831-31.231305 15.773242l-10.187013 18.565844C613.401969 672.596651 591.768253 684.795485 568.068482 684.795485zM496.447281 602.057085c17.86795 0 35.023678 4.695952 48.317449 13.211906l18.675338 11.966543c1.533936 0.985444 3.093455 1.478677 4.627391 1.478677 1.601474 0 4.586458-0.575098 6.626931-4.504594l10.187013-19.688411c14.991436-29.02608 51.096748-48.235584 83.696214-46.592155l22.140253 2.765997c0.013303 0 0.039909 0 0.055259 0 3.462868 0 5.230118-2.917446 6.187933-3.930519 1.411139-1.478677 2.095731-4.436032 1.984191-6.900154l-1.01205-22.577205c-1.533936-32.668027 19.237133-68.88181 48.317449-83.916225l19.689435-10.296507c2.846838-1.465374 3.88754-3.518127 4.27128-4.928243 0.382717-1.424442 0.478907-3.710508-1.25969-6.421246l-11.952216-18.634406c-17.662265-27.561729-17.662265-69.128427 0-96.67583l11.965519-18.675338c1.711991-2.683109 1.629103-4.942569 1.246387-6.365988-0.38374-1.424442-1.437745-3.437286-4.285606-4.901637l-19.647479-10.146081c-29.107945-15.046694-49.879014-51.04149-48.345078-83.737146l1.01205-22.098297c0.110517-2.491751-0.574075-4.586458-1.984191-6.065136-0.971118-1.013073-2.738367-2.217505-5.723352-2.217505l-22.645766 1.054005c-32.92897 1.547239-68.718081-19.291368-83.723843-48.330752l-10.172687-19.675108c-2.039449-3.942799-5.024433-4.517897-6.626931-4.517897-1.51961 0-3.066849 0.49221-4.599761 1.478677l-18.702967 11.980869c-26.576285 17.032932-70.059636 17.032932-96.634898 0l-18.662035-11.966543c-1.547239-0.99977-3.108804-1.49198-4.641717-1.49198-1.601474 0-4.600785 0.575098-6.626931 4.517897l-10.146081 19.660782c-15.061021 29.067013-50.946322 50.987255-83.752496 49.28959l-22.125927-0.096191c-0.027629 0-0.040932 0-0.054235 0-3.477194 0-5.230118 0.246617-6.188956 1.25969-1.423419 1.478677-2.108011 3.094478-1.984191 5.558599l1.013073 21.920242c1.51961 32.668027-19.250436 68.554352-48.331775 83.587744l-19.701714 10.105149c-2.820232 1.451048-3.875261 3.436262-4.257977 4.860704-0.369414 1.423419-0.465604 3.668553 1.274016 6.380314l11.952216 18.606777c17.662265 27.575032 17.662265 69.116147 0.027629 96.662527L223.916281 421.738253c-1.710968 2.669806-1.6158 4.929266-1.246387 6.352685 0.38374 1.410116 1.437745 3.409656 4.257977 4.860704l19.716041 10.200316c29.067013 15.033391 49.837058 51.02921 48.317449 83.724867l-1.013073 22.098297c-0.12382 2.491751 0.560772 4.586458 1.984191 6.078439 0.958838 0.99977 2.738367 2.203178 5.710049 2.203178l22.659069-1.052982c32.888038-1.370207 68.691475 19.278065 83.724867 48.303122l10.18599 19.729344c2.012843 3.901867 5.01113 4.477988 6.613628 4.477988 1.547239 0 3.107781-0.493234 4.668323-1.493004l18.62008-11.95324C461.411323 606.753037 478.580355 602.057085 496.447281 602.057085z"  /><path d="M403.563824 890.032846c-5.832845 0-11.610432-1.821485-16.48444-5.352915l-63.693648-46.263673-75.879178 20.919449c-9.282411 2.587941-19.250436 0.178055-26.370601-6.339382-7.119141-6.502088-10.391674-16.210193-8.667404-25.698289l45.538149-250.857375c1.560542-8.639774 7.092535-16.047488 14.923898-20.00359 7.831362-3.971451 17.073864-4.03899 24.973788-0.178055 1.833765 0.889253 3.121084 0.998747 3.929496 0.998747l22.467711-1.052982c32.888038-1.370207 68.691475 19.278065 83.724867 48.303122l10.18599 19.729344c2.122337 4.120854 6.284123 5.4225 10.378371 3.272533 9.488095-4.983501 20.989033-4.120854 29.628808 2.245134 8.639774 6.339382 12.912078 17.059538 10.994402 27.602661l-38.061874 209.645764c-1.726318 9.488095-8.201799 17.416671-17.155728 21.016663C410.62873 889.361557 407.082974 890.032846 403.563824 890.032846zM328.944336 779.759323c5.860475 0 11.638061 1.834788 16.471137 5.353938l38.528502 27.972075 23.740704-130.782625c-16.649192-4.695952-30.942733-16.196891-39.294958-32.31294l-10.171664-19.72832c-4.806469-9.255805-19.635199-18.059308-30.505781-18.059308l-19.35993 0.903579-32.736589 180.318832 45.86663-12.650111C323.946508 780.088828 326.452585 779.759323 328.944336 779.759323z"  /><path d="M527.472901 918.073482c-3.532453 0-7.078209-0.659009-10.446933-2.013867-8.940626-3.587712-15.416108-11.528568-17.141402-21.016663l-46.866401-258.087033c-2.684132-14.759145 6.722098-29.012777 21.344121-32.352849 24.111141-5.504364 51.575656-1.410116 70.402443 10.665921l18.675338 11.966543c1.533936 0.985444 3.093455 1.478677 4.627391 1.478677 1.601474 0 4.586458-0.575098 6.626931-4.504594l10.187013-19.688411c14.991436-29.02608 51.096748-48.235584 83.696214-46.592155l22.140253 2.765997c0.013303 0 0.026606 0 0.039909 0 3.930519 0 6.531763-3.354398 7.626701-6.188956 4.532223-11.734252 16.320711-19.784602 28.807093-18.675338 12.500709 1.191128 22.701025 10.104125 24.946159 22.481014L802.660404 836.279594c0.916882 2.792603 1.424442 3.737114 1.424442 6.845918 0 15.484669-12.555967 26.013467-28.039613 26.013467-0.109494 0-0.205685 0-0.274246 0-2.492774 0-4.998851 1.588171-7.448646 0.903579l-121.992425-32.640398-102.385878 74.839499C539.083333 915.772067 533.304723 918.073482 527.472901 918.073482zM514.671341 662.58667l32.42141 178.539302 77.194126-56.066947c6.91448-5.010107 15.731286-6.613628 23.933085-4.339842l91.993181 25.329898-35.269271-194.147792c-4.437056 0.944512-9.036817 3.710508-13.732769 3.710508l-25.248034 1.163499c-0.013303 0-0.026606 0-0.039909 0-11.652388 0-26.439162 6.490831-31.231305 15.773242l-10.187013 18.565844c-11.103896 21.482267-32.736589 34.257222-56.43636 34.257222-12.267395 0-24.329105-3.860934-34.899858-10.638291L514.671341 662.58667z"  /></svg>