<svg class="svg-icon" style="width: 1em; height: 1em;vertical-align: middle;fill: currentColor;overflow: hidden;" viewBox="0 0 1024 1024" version="1.1" xmlns="http://www.w3.org/2000/svg"><path d="M937.917217 979.500522H86.305391a44.432696 44.432696 0 0 1-44.388174-44.321392V150.728348c0-24.420174 19.945739-44.321391 44.388174-44.321391h127.73287c17.942261 0 32.434087 14.558609 32.434087 32.389565 0 17.897739-14.58087 32.367304-32.434087 32.367304H106.674087v246.160696c0.623304-0.111304 1.26887-0.111304 1.892174-0.111305h808.870956V171.163826H828.549565a32.434087 32.434087 0 0 1-32.434087-32.367304c0-17.92 14.58087-32.389565 32.434087-32.389565h109.367652c24.442435 0 44.388174 19.901217 44.388174 44.321391V935.17913a44.432696 44.432696 0 0 1-44.388174 44.321392z m-24.242087-498.265044H103.201391v432.773565h810.473739V481.235478z m-682.429217 48.105739a63.22087 63.22087 0 0 1 63.287652 63.176348v0.044522a63.22087 63.22087 0 0 1-63.309913 63.176348 63.265391 63.265391 0 0 1-63.265391-63.22087 63.22087 63.22087 0 0 1 63.287652-63.176348z m0 196.786087a63.24313 63.24313 0 0 1 63.287652 63.198609v0.044522a63.22087 63.22087 0 0 1-63.309913 63.154087 63.22087 63.22087 0 0 1-63.265391-63.198609 63.24313 63.24313 0 0 1 63.287652-63.198609z m252.215652-196.786087a63.22087 63.22087 0 0 1 63.287652 63.176348v0.089044a63.24313 63.24313 0 0 1-63.332174 63.154087 63.24313 63.24313 0 0 1-63.24313-63.243131 63.22087 63.22087 0 0 1 63.287652-63.176348z m0 196.786087a63.24313 63.24313 0 0 1 63.287652 63.198609v0.066783a63.24313 63.24313 0 0 1-63.332174 63.154087 63.22087 63.22087 0 0 1-63.24313-63.22087 63.24313 63.24313 0 0 1 63.287652-63.198609z m196.363131 23.79687l36.953043 36.975304 80.495304-80.473043a29.807304 29.807304 0 0 1 41.984 0 29.718261 29.718261 0 0 1 0 41.917217l-101.487304 101.331478a29.718261 29.718261 0 0 1-41.984 0l-57.945043-57.833739a29.718261 29.718261 0 0 1 0-41.917217 29.807304 29.807304 0 0 1 41.984 0z m58.63513-94.163478a63.24313 63.24313 0 0 1-63.24313-63.243131v-0.066782a63.22087 63.22087 0 0 1 63.332174-63.154087 63.22087 63.22087 0 0 1 63.24313 63.220869v0.089044a63.24313 63.24313 0 0 1-63.332174 63.154087z m3.806609-383.265392c-17.942261 0-32.411826-14.469565-32.411826-32.367304V79.471304a32.411826 32.411826 0 0 1 64.845913 0v160.656696c0 17.897739-14.58087 32.367304-32.434087 32.367304z m-100.953044-98.704695H390.789565c-17.853217 0-32.434087-14.469565-32.434087-32.389566s14.58087-32.367304 32.434087-32.367304h250.523826c17.942261 0 32.434087 14.558609 32.434087 32.367304 0 17.92-14.60313 32.389565-32.434087 32.389566z m-339.522782 96.077913a32.50087 32.50087 0 0 1-32.434087-32.367305V76.866783a32.434087 32.434087 0 0 1 64.845913 0v160.634434c0 17.92-14.58087 32.367304-32.411826 32.367305z"  /></svg>